<?xml version="1.0" encoding="UTF-8"?>
<svg id="_512_512" data-name="512*512" xmlns="http://www.w3.org/2000/svg" viewBox="0 0 512 512">
  <defs>
    <style>
      .cls-1 {
        fill: #9e8600;
      }

      .cls-2 {
        fill: #fff;
      }

      .cls-3 {
        fill: #00a32c;
      }

      .cls-4 {
        fill: none;
        stroke: #810510;
        stroke-width: 7.99px;
      }

      .cls-4, .cls-5 {
        stroke-miterlimit: 10;
      }

      .cls-6 {
        fill: #100064;
      }

      .cls-5 {
        stroke: #000;
        stroke-width: 3px;
      }

      .cls-7 {
        fill: #1645dc;
      }

      .cls-8 {
        fill: #101fbb;
      }

      .cls-9 {
        fill: #cecece;
      }

      .cls-10 {
        fill: #d8be02;
      }
    </style>
  </defs>
  <g id="Squared_Circle_copy_5" data-name="Squared Circle copy 5">
    <rect class="cls-2" x="29.08" y="30.86" width="452.98" height="452.94"/>
    <ellipse class="cls-5" cx="255.56" cy="257.33" rx="255.56" ry="255.54"/>
  </g>
  <g id="Star_copy_5" data-name="Star copy 5">
    <polygon class="cls-6" points="105.35 50.59 405.78 50.59 498.62 336.3 255.56 512.87 12.51 336.3 105.35 50.59"/>
    <polygon class="cls-8" points="105.35 50.59 255.56 159.72 405.78 50.59 348.4 227.17 498.62 336.3 312.94 336.3 255.56 512.87 198.19 336.3 12.51 336.3 162.73 227.17 105.35 50.59"/>
    <polygon class="cls-7" points="255.56 159.72 348.4 227.17 312.94 336.3 198.19 336.3 162.73 227.17 255.56 159.72"/>
    <polygon class="cls-10" points="255.56 159.72 233.65 227.17 162.73 227.17 220.1 268.85 198.19 336.3 255.56 294.61 312.94 336.3 291.03 268.85 348.4 227.17 277.48 227.17 255.56 159.72"/>
    <polygon class="cls-1" points="233.65 227.17 277.48 227.17 291.03 268.85 255.56 294.61 220.1 268.85 233.65 227.17"/>
  </g>
  <g id="Planet_copy_5" data-name="Planet copy 5">
    <ellipse id="Orbit" class="cls-4" cx="234.37" cy="264.58" rx="229.73" ry="101.31" transform="translate(-70.47 85.68) rotate(-18.06)"/>
    <circle id="Earth" class="cls-3" cx="386.26" cy="299.76" r="36.72"/>
    <circle id="Moon" class="cls-9" cx="462.12" cy="324.41" r="12.07"/>
  </g>
  <polygon class="cls-8" points="105.35 50.59 255.56 159.72 162.73 227.17 105.35 50.59"/>
  <polygon class="cls-8" points="255.56 159.72 405.78 50.59 348.4 227.17 255.56 159.72"/>
</svg>